:SAMPLES-PER-SECOND 30
:FULLY-SPECIFIED
:DEGREES
57
root  71.2577 38.4752 -2.38831 -135.656 -84.4101 130.005
RightUpLeg  -18.2387 2.69594 -7.88664
RightLeg  44.3851 2.33536 2.1518
RightFoot  -4.46496 -0.606849 9.5782
RightToes  -3.0268e-009 0 -3.6325e-017
Spine  4.55887 0.599134 -6.25869
Spine1  7.86702 0.0841181 -0.668407
HEad  -1.86115 1.09821 -1.16709
LeftShoulder1  -0.857827 5.61011 -34.5133
LeftArm  9.57713 -7.07863 -43.0999
LeftForeArm  26.0261 -16.6521 -6.94564
LeftHand  -0.0879352 9.0977 -1.13593
RightShoulder  -1.3744 -6.92289 33.6162
RightArm  20.9397 -5.91457 42.7464
RightForeArm  16.272 11.6405 7.69445
RightHand  -0.0558166 3.07349 -1.01485
LeftUpLeg  -0.281045 5.60801 -6.46219
LeftLeg  16.5935 7.26488 1.35394
LeftFoot  -11.7143 0.0867568 4.97285
LeftToes  2.52475e-009 -1.26109e-010 3.16044e-011
58
root  70.4707 38.507 -2.2779 -137.183 -84.7615 131.853
RightUpLeg  -18.82 2.34679 -6.90644
RightLeg  35.0162 3.02525 2.02
RightFoot  -4.22304 -0.599771 9.15898
RightToes  -3.0268e-009 0 -3.6325e-017
Spine  3.989 0.0115212 -5.98577
Spine1  8.47232 -0.477159 -0.160246
HEad  -1.90434 1.79502 -1.16015
LeftShoulder1  -0.991807 5.91873 -34.857
LeftArm  11.9742 -8.8969 -43.14
LeftForeArm  23.6212 -18.1278 -6.19788
LeftHand  -0.0720966 8.57791 -0.906973
RightShoulder  -1.17263 -6.49884 32.6058
RightArm  19.4115 -6.14232 43.7606
RightForeArm  17.4246 10.5859 7.82607
RightHand  -0.0325472 3.96012 -0.684486
LeftUpLeg  1.19481 5.60612 -6.22941
LeftLeg  15.595 7.04449 1.1889
LeftFoot  -12.579 0.129405 4.99689
LeftToes  2.52475e-009 -1.26109e-010 3.16044e-011
59
root  69.6231 38.4872 -2.18109 -135.343 -84.8949 130.422
RightUpLeg  -18.8645 2.21154 -6.50077
RightLeg  24.7409 3.95378 1.84748
RightFoot  -4.24951 -0.627131 9.63037
RightToes  -3.0268e-009 0 -3.6325e-017
Spine  3.88222 0.00722958 -6.04852
Spine1  7.87345 -0.46112 0.31568
HEad  -1.87575 1.98922 -1.03739
LeftShoulder1  -0.834141 5.56646 -34.2898
LeftArm  13.7462 -9.57212 -43.9804
LeftForeArm  21.9356 -19.2093 -5.6224
LeftHand  -0.0792944 9.26688 -0.830986
RightShoulder  -1.25479 -6.68872 32.8468
RightArm  18.9527 -7.06325 43.1132
RightForeArm  17.6191 10.621 7.64495
RightHand  -0.0690801 2.68746 -1.19408
LeftUpLeg  2.57431 5.71209 -6.2777
LeftLeg  14.8445 6.78553 0.876574
LeftFoot  -13.6358 0.180983 4.92706
LeftToes  2.52475e-009 -1.26109e-010 3.16044e-011
60
root  68.757 38.4851 -2.08696 -134.212 -84.7462 129.669
RightUpLeg  -18.5809 1.5559 -6.05375
RightLeg  14.6302 5.78513 1.1455
RightFoot  -4.23242 -0.613056 9.3835
RightToes  -3.0268e-009 0 -3.6325e-017
Spine  4.01063 0.127003 -5.98952
Spine1  6.75607 -0.383995 1.01977
HEad  -1.71914 3.3314 -1.50908
LeftShoulder1  -0.700169 5.21543 -34.7218
LeftArm  14.8606 -10.0305 -43.9496
LeftForeArm  21.7091 -19.5242 -5.48561
LeftHand  -0.117522 8.8278 -2.23139
RightShoulder  -1.20216 -6.58587 32.4483
RightArm  17.943 -8.38507 42.7542
RightForeArm  18.0141 10.5623 7.36734
RightHand  -0.0617999 3.2259 -1.06645
LeftUpLeg  4.42642 5.69934 -6.49353
LeftLeg  13.2194 6.90377 0.477563
LeftFoot  -14.2962 0.215849 5.03873
LeftToes  2.52475e-009 -1.26109e-010 3.16044e-011
61
root  67.8315 38.4469 -1.99839 -129.727 -84.9243 125.672
RightUpLeg  -18.4503 -2.83131 -4.44622
RightLeg  6.12213 10.9356 -0.250895
RightFoot  -4.32116 -0.59965 9.27536
RightToes  -3.0268e-009 0 -3.6325e-017
Spine  2.71459 -0.249116 -4.94385
Spine1  8.09445 -0.445982 0.109119
HEad  -1.21504 3.02516 -1.27928
LeftShoulder1  -0.651993 5.12907 -33.9271
LeftArm  14.7187 -10.9389 -44.831
LeftForeArm  21.2085 -19.4241 -5.55883
LeftHand  -0.0688109 9.39547 -0.470087
RightShoulder  -1.37755 -6.97432 33.171
RightArm  18.2739 -7.72222 42.348
RightForeArm  18.0359 10.6586 7.38683
RightHand  -0.00256185 3.1072 -0.268547
LeftUpLeg  6.03872 5.59196 -6.70957
LeftLeg  12.0573 6.59739 0.262161
LeftFoot  -15.1233 0.250815 4.84089
LeftToes  2.52475e-009 -1.26109e-010 3.16044e-011
